<svg xmlns="http://www.w3.org/2000/svg" width="668.221" height="342.5" viewBox="0 0 668.221 342.5">
  <g id="bg-login-left" transform="translate(0.221 -738.5)">
    <path id="Path_628" data-name="Path 628" d="M-1217.357,356.5h-590.364V15a64.761,64.761,0,0,1,12.038,1.291c2.547.479,5.131,1.052,7.629,1.606l.008,0c2.352.522,4.783,1.062,7.179,1.521,6.188,1.187,12.56,2.329,18.723,3.434,29.862,5.355,60.737,10.891,88.724,24.3,33.9,16.248,64.076,42.118,87.272,74.813,10.482,14.773,19.766,31.148,28.743,46.984,11.481,20.251,23.351,41.189,37.818,58.92a181.538,181.538,0,0,0,38.274,35.327,156.776,156.776,0,0,0,44.772,21.309c20.591,5.949,42.146,7.281,62.992,8.57,9.924.613,20.184,1.247,30.213,2.371a203.092,203.092,0,0,1,29.834,5.372,177.711,177.711,0,0,1,25.646,9.069,220.905,220.905,0,0,1,24.491,12.749c14.783,8.865,29.832,19.939,46.006,33.855Z" transform="translate(1808 724)" fill="#bdf4f4" stroke="rgba(0,0,0,0)" stroke-width="1"/>
    <circle id="Ellipse_3" data-name="Ellipse 3" cx="52" cy="52" r="52" transform="translate(564 934)" fill="#e8fbfb"/>
  </g>
</svg>
