<svg xmlns="http://www.w3.org/2000/svg" xmlns:xlink="http://www.w3.org/1999/xlink" width="783.688" height="395.647" viewBox="0 0 783.688 395.647">
  <defs>
    <clipPath id="clip-path">
      <rect id="Rectangle_250" data-name="Rectangle 250" width="783.688" height="395.647" fill="none"/>
    </clipPath>
  </defs>
  <g id="bg-login-top" opacity="0.35">
    <g id="Group_3" data-name="Group 3" clip-path="url(#clip-path)">
      <path id="Path_627" data-name="Path 627" d="M14.941,394.356c6-.93,11.984-2.182,17.972-3.129,43.349-6.853,89.273-11.515,130.333-27.739a271.806,271.806,0,0,0,105.862-74.812c28.988-33.682,49.478-74.32,80.739-105.9a211.606,211.606,0,0,1,100.734-56.636c48.75-11.612,100.3-5.551,149.246-16.314C670.012,94.388,728.917,47.287,783.688.765H19.4C15.867.765,6.723-.958,3.61.765-1.554,3.624.338,12.291.338,18.608V395.647a95.375,95.375,0,0,0,14.6-1.291" fill="#bdf4f4"/>
    </g>
  </g>
</svg>
