<svg xmlns="http://www.w3.org/2000/svg" xmlns:xlink="http://www.w3.org/1999/xlink" width="22" height="22" viewBox="0 0 22 22">
  <defs>
    <clipPath id="clip-path">
      <rect id="Rectangle_280" data-name="Rectangle 280" width="16.182" height="16.134" fill="#fff"/>
    </clipPath>
  </defs>
  <g id="ic-aim" transform="translate(-8729 -243)">
    <g id="Group_126" data-name="Group 126" transform="translate(8732 246)">
      <path id="Path_667" data-name="Path 667" d="M60.543,73.7H59.172v.686h1.372" transform="translate(-49.577 -61.553)" fill="#fff"/>
      <g id="Group_40" data-name="Group 40" transform="translate(0 0)">
        <g id="Group_39" data-name="Group 39" transform="translate(0 0)" clip-path="url(#clip-path)">
          <path id="Path_668" data-name="Path 668" d="M14.042,16.134l-.018-3.867c.024-2.981.028-5.963-.02-8.943q0-.181-.023-.355h0A3.278,3.278,0,0,0,10.661.035q-3.672-.068-7.345,0A3.251,3.251,0,0,0,.043,3.256c-.06,2.485-.052,4.973-.005,7.458A3.026,3.026,0,0,0,2.72,13.871c2.682.17,5.383.046,8.082.046V11.326c-2.333,0-4.586-.024-6.839.012-.922.015-1.284-.331-1.265-1.262.041-2.034.054-4.07,0-6.1-.029-1.024.406-1.3,1.348-1.284,1.92.042,3.842.007,5.763.007,1.448,0,1.535.085,1.536,1.545q0,3.89,0,7.781v4.112H12.52v-.9h.452v.9ZM6.228,12.327H8.063v.452H6.228ZM1.852,10.989H1.4V9.155h.452Zm0-3.669H1.4V5.486h.452Zm.06-4.487a1.941,1.941,0,0,0-.06.408v.41H1.4v-.41a2.325,2.325,0,0,1,.067-.491,2.382,2.382,0,0,1,.471-.97l.348.289a1.92,1.92,0,0,0-.374.764M3.6,12.345a2.959,2.959,0,0,0,.327-.016h0l.015,0h.446v.452H3.975A3.4,3.4,0,0,1,3.6,12.8a3.191,3.191,0,0,1-1.1-.182l.16-.423a2.759,2.759,0,0,0,.945.152M5.571,1.432H3.887c-.048,0-.1,0-.141,0h0L3.727.983c.052,0,.106,0,.16,0H5.571Zm3.669,0H7.405V.98H9.24Zm3.733,8.286H12.52V7.884h.452Zm0-3.669H12.52V4.215h.452Zm-.713-3.515a1.965,1.965,0,0,0-.607-.685,2.471,2.471,0,0,0-.658-.326h0l.14-.43a2.918,2.918,0,0,1,.779.388,2.417,2.417,0,0,1,.745.842Zm.261,9.019h.452v1.834H12.52Z" transform="translate(0 0)" fill="#fff" fill-rule="evenodd"/>
          <path id="Path_669" data-name="Path 669" d="M86.658,70.678h1.687V68.092H86.658Zm1.583-1.067H86.728v-.452h1.513Z" transform="translate(-72.164 -56.703)" fill="#fff" fill-rule="evenodd"/>
          <path id="Path_670" data-name="Path 670" d="M32.817,22.755a1.84,1.84,0,0,0-1.84,1.84c0,1.757,1.84,4.048,1.84,4.048s1.84-2.291,1.84-4.048a1.84,1.84,0,0,0-1.84-1.84m0,2.855a.993.993,0,1,1,.994-.993.993.993,0,0,1-.994.993" transform="translate(-25.796 -18.949)" fill="#fff"/>
        </g>
      </g>
    </g>
    <rect id="Rectangle_344" data-name="Rectangle 344" width="22" height="22" transform="translate(8729 243)" fill="none"/>
  </g>
</svg>
