<svg xmlns="http://www.w3.org/2000/svg" xmlns:xlink="http://www.w3.org/1999/xlink" width="22" height="22" viewBox="0 0 22 22">
  <defs>
    <clipPath id="clip-path">
      <rect id="Rectangle_281" data-name="Rectangle 281" width="14" height="12" transform="translate(-0.001 0)" fill="#fff"/>
    </clipPath>
  </defs>
  <g id="ic-bag" transform="translate(-8729 -200)">
    <g id="Group_125" data-name="Group 125" transform="translate(8732.631 204.919)">
      <g id="Group_42" data-name="Group 42" transform="translate(0.37 0.081)" clip-path="url(#clip-path)">
        <path id="Path_671" data-name="Path 671" d="M6.492,6.974H7.777v1.55h6.492s-.106-3.454-.143-4.536c-.035-1.028-.374-1.663-1.427-1.663H10.411L9.557.577C9.321.094,9.24,0,8.715,0H5.553c-.525,0-.605.094-.841.577L3.858,2.325H1.57C.516,2.325.182,2.96.143,3.988S0,8.524,0,8.524H6.492ZM5.458,1.484c.164-.335.219-.4.582-.4H8.229c.363,0,.419.065.582.4l.411.84H5.047l.411-.84m2.319,9.364H6.492V9.3H.357S.446,10.692.5,11.874a1.176,1.176,0,0,0,1.284,1.3h10.7a1.177,1.177,0,0,0,1.284-1.3c.062-1.215.143-2.575.143-2.575H7.777Z" transform="translate(-0.223 -0.128)" fill="#fff"/>
      </g>
    </g>
    <rect id="Rectangle_345" data-name="Rectangle 345" width="22" height="22" transform="translate(8729 200)" fill="none"/>
  </g>
</svg>
