<svg xmlns="http://www.w3.org/2000/svg" width="28" height="28" viewBox="0 0 28 28">
  <g id="ic-contact" transform="translate(-0.125 0.313)">
    <rect id="Rectangle_311" data-name="Rectangle 311" width="28" height="28" transform="translate(0.125 -0.313)" fill="none"/>
    <path id="Path_699" data-name="Path 699" d="M14.788,4.353l5.682,5.682V23.176H6.353V4.353h8.435M15.764,2H6.353A2.36,2.36,0,0,0,4,4.353V23.176a2.36,2.36,0,0,0,2.353,2.353H20.47a2.36,2.36,0,0,0,2.353-2.353V9.059L15.764,2ZM13.411,16.117a2.353,2.353,0,1,0-2.353-2.353A2.36,2.36,0,0,0,13.411,16.117Zm4.706,4.035a2.366,2.366,0,0,0-1.435-2.176,8.179,8.179,0,0,0-6.541,0,2.366,2.366,0,0,0-1.435,2.176v.671h9.411Z" transform="translate(0.594 0.521)" fill="#333"/>
  </g>
</svg>
