<svg id="ic-fact-check" xmlns="http://www.w3.org/2000/svg" width="30" height="30" viewBox="0 0 30 30">
  <g id="Group_65" data-name="Group 65">
    <rect id="Rectangle_292" data-name="Rectangle 292" width="30" height="30" fill="none"/>
  </g>
  <g id="Group_67" data-name="Group 67" transform="translate(2.333 3.5)">
    <g id="Group_66" data-name="Group 66">
      <path id="Path_688" data-name="Path 688" d="M24.8,3H4.533A2.552,2.552,0,0,0,2,5.556V23.444A2.552,2.552,0,0,0,4.533,26H24.8a2.552,2.552,0,0,0,2.533-2.556V5.556A2.552,2.552,0,0,0,24.8,3Zm0,20.444H4.533V5.556H24.8Z" transform="translate(-2 -3)" fill="#8dc87d" fill-rule="evenodd"/>
      <path id="Path_689" data-name="Path 689" d="M20.645,10.657,18.988,9l-3.7,3.7-1.645-1.657L12,12.687,15.29,16Z" transform="translate(1.667 -1)" fill="#8dc87d" fill-rule="evenodd"/>
      <rect id="Rectangle_293" data-name="Rectangle 293" width="6" height="3" transform="translate(4.437 5.238)" fill="#8dc87d"/>
      <rect id="Rectangle_294" data-name="Rectangle 294" width="6" height="2" transform="translate(4.437 10.977)" fill="#8dc87d"/>
      <rect id="Rectangle_295" data-name="Rectangle 295" width="6" height="2" transform="translate(4.437 15.75)" fill="#8dc87d"/>
    </g>
  </g>
</svg>
