<svg id="ic-flip_black" xmlns="http://www.w3.org/2000/svg" width="30" height="30" viewBox="0 0 30 30">
  <path id="Path_654" data-name="Path 654" d="M0,0H30V30H0Z" fill="none"/>
  <path id="Path_655" data-name="Path 655" d="M18.178,26.081h2.53V23.573h-2.53Zm5.059-15.049h2.53V8.524h-2.53ZM3,6.016V23.573a2.526,2.526,0,0,0,2.53,2.508h5.059V23.573H5.53V6.016h5.059V3.508H5.53A2.526,2.526,0,0,0,3,6.016ZM23.238,3.508V6.016h2.53A2.526,2.526,0,0,0,23.238,3.508ZM13.119,28.589h2.53V1h-2.53Zm10.119-7.524h2.53V18.557h-2.53ZM18.178,6.016h2.53V3.508h-2.53Zm5.059,10.032h2.53V13.541h-2.53Zm0,10.032a2.526,2.526,0,0,0,2.53-2.508h-2.53Z" transform="translate(0.616 0.205)" fill="#6da95c"/>
</svg>
