<svg id="ic-location_off" xmlns="http://www.w3.org/2000/svg" width="30" height="30" viewBox="0 0 30 30">
  <path id="Path_652" data-name="Path 652" d="M0,0H30V30H0ZM14.687,14.337,14.55,14.2Z" fill="none"/>
  <path id="Path_653" data-name="Path 653" d="M14.393,7.635a3.116,3.116,0,0,1,3.1,3.13,3.154,3.154,0,0,1-1.029,2.316l4.5,4.545a15.837,15.837,0,0,0,2.107-6.862A8.65,8.65,0,0,0,8.147,4.692L12.1,8.686A3.017,3.017,0,0,1,14.393,7.635Zm5.416,12.021-5.738-5.8-.136-.138L3.574,3.252,2,4.842,5.941,8.824a9.131,9.131,0,0,0-.223,1.941c0,6.574,8.675,16.278,8.675,16.278A57.269,57.269,0,0,0,18.581,21.6l4.152,4.195,1.574-1.59-4.5-4.545Z" transform="translate(0.479 0.479)" fill="#6da95c"/>
</svg>
