<svg id="ic-password" xmlns="http://www.w3.org/2000/svg" width="35" height="35" viewBox="0 0 35 35">
  <path id="Path_621" data-name="Path 621" d="M0,0H35V35H0Z" fill="none"/>
  <path id="Path_622" data-name="Path 622" d="M21.7,10H20.437V7.427a6.323,6.323,0,1,0-12.644,0V10H6.529A2.558,2.558,0,0,0,4,12.569V25.422a2.558,2.558,0,0,0,2.529,2.571H21.7a2.558,2.558,0,0,0,2.529-2.571V12.569A2.558,2.558,0,0,0,21.7,10ZM14.115,21.566A2.571,2.571,0,1,1,16.644,19,2.558,2.558,0,0,1,14.115,21.566ZM18.034,10H10.2V7.427a3.92,3.92,0,1,1,7.839,0Z" transform="translate(3.385 2.245)" fill="#3c9bef"/>
</svg>
