<svg id="ic-password-lock" xmlns="http://www.w3.org/2000/svg" width="30" height="30" viewBox="0 0 30 30">
  <g id="Group_114" data-name="Group 114">
    <path id="Path_725" data-name="Path 725" d="M0,0H30V30H0Z" fill="none"/>
    <path id="Path_726" data-name="Path 726" d="M0,0H30V30H0Z" fill="none" opacity="0.87"/>
  </g>
  <path id="Path_727" data-name="Path 727" d="M21.562,9.759H20.308v-2.5a6.272,6.272,0,0,0-12.544,0v2.5H6.509A2.513,2.513,0,0,0,4,12.261V24.774a2.513,2.513,0,0,0,2.509,2.5H21.562a2.513,2.513,0,0,0,2.509-2.5V12.261A2.513,2.513,0,0,0,21.562,9.759Zm-11.29-2.5a3.763,3.763,0,0,1,7.527,0v2.5H10.272Zm11.29,17.518H6.509V12.261H21.562ZM14.035,21.02a2.5,2.5,0,1,0-2.509-2.5A2.513,2.513,0,0,0,14.035,21.02Z" transform="translate(0.965 0.241)" fill="#333"/>
</svg>
