<svg id="ic-question" xmlns="http://www.w3.org/2000/svg" width="22.836" height="22.836" viewBox="0 0 22.836 22.836">
  <path id="Path_91" data-name="Path 91" d="M0,0H22.836V22.836H0Z" fill="none"/>
  <path id="Path_92" data-name="Path 92" d="M11.134,2a9.134,9.134,0,1,0,9.134,9.134A9.138,9.138,0,0,0,11.134,2Zm.913,15.528H10.221V15.7h1.827Zm1.891-7.079-.822.84a3.11,3.11,0,0,0-1.069,2.585H10.221v-.457a3.677,3.677,0,0,1,1.069-2.585l1.133-1.151a1.786,1.786,0,0,0,.539-1.288,1.827,1.827,0,1,0-3.654,0H7.481a3.654,3.654,0,1,1,7.307,0A2.907,2.907,0,0,1,13.939,10.449Z" transform="translate(0.284 0.284)" fill="#8dc87d"/>
</svg>
