<svg xmlns="http://www.w3.org/2000/svg" width="24" height="24" viewBox="0 0 24 24">
  <g id="ic-risk" opacity="0.7">
    <rect id="Rectangle_286" data-name="Rectangle 286" width="24" height="24" fill="none"/>
    <path id="Path_674" data-name="Path 674" d="M9.5,12a1,1,0,1,1-1-1A1,1,0,0,1,9.5,12Zm4.25-2a1,1,0,1,0-1-1A1,1,0,0,0,13.75,10Zm-3.5,0a1,1,0,1,0-1-1A1,1,0,0,0,10.25,10Zm0,4a1,1,0,1,0,1,1A1,1,0,0,0,10.25,14ZM22,11.25v1.5a.75.75,0,0,1-1.5,0H18.96a6.978,6.978,0,0,1-1.52,3.65l1.09,1.09.01-.01a.75.75,0,1,1,1.06,1.06L18.54,19.6a.75.75,0,0,1-1.07-1.05l-1.09-1.09a7.015,7.015,0,0,1-3.64,1.51v1.54h.01a.75.75,0,0,1,0,1.5h-1.5a.75.75,0,0,1-.01-1.5V18.96a6.948,6.948,0,0,1-3.63-1.51L6.52,18.54l.01.01a.75.75,0,0,1-1.06,1.06L4.4,18.54a.75.75,0,0,1,1.05-1.07l1.09-1.09a6.889,6.889,0,0,1-1.5-3.63H3.5a.75.75,0,1,1-1.5,0v-1.5a.75.75,0,0,1,1.5,0H5.04a7.053,7.053,0,0,1,1.5-3.63L5.45,6.53A.75.75,0,0,1,4.4,5.46L5.46,4.4A.75.75,0,0,1,6.52,5.46l-.01.01L7.6,6.56a6.982,6.982,0,0,1,3.63-1.51V3.5a.753.753,0,0,1-.74-.75A.771.771,0,0,1,11.25,2h1.5a.75.75,0,0,1,0,1.5h-.01V5.04a6.933,6.933,0,0,1,3.64,1.51l1.09-1.09a.742.742,0,0,1,.01-1.05.754.754,0,0,1,1.06,0L19.6,5.47a.75.75,0,1,1-1.06,1.06l-.01-.01L17.44,7.6a7.025,7.025,0,0,1,1.52,3.65H20.5a.75.75,0,0,1,1.5,0ZM17,12a5,5,0,1,0-5,5A5,5,0,0,0,17,12Zm-5-1a1,1,0,1,0,1,1A1,1,0,0,0,12,11Zm3.5,0a1,1,0,1,0,1,1A1,1,0,0,0,15.5,11Zm-1.75,3a1,1,0,1,0,1,1A1,1,0,0,0,13.75,14Z" fill="#3c9bef"/>
  </g>
</svg>
