<svg id="ic-setting" xmlns="http://www.w3.org/2000/svg" width="24" height="24" viewBox="0 0 24 24">
  <path id="Path_633" data-name="Path 633" d="M0,0H24V24H0Z" fill="none"/>
  <path id="Path_634" data-name="Path 634" d="M16.856,11.479a6.094,6.094,0,0,0,.052-.81,4.976,4.976,0,0,0-.06-.81L18.6,8.5a.423.423,0,0,0,.1-.525l-1.654-2.86a.421.421,0,0,0-.508-.19l-2.059.827a6.085,6.085,0,0,0-1.4-.81l-.31-2.188A.417.417,0,0,0,12.36,2.4H9.052a.408.408,0,0,0-.4.353l-.31,2.188a6.22,6.22,0,0,0-1.4.81L4.883,4.924a.411.411,0,0,0-.508.19L2.729,7.973a.392.392,0,0,0,.1.525L4.581,9.86a4.792,4.792,0,0,0-.017,1.619L2.815,12.84a.423.423,0,0,0-.1.525l1.654,2.86a.421.421,0,0,0,.508.19l2.059-.827a6.085,6.085,0,0,0,1.4.81l.31,2.188a.423.423,0,0,0,.413.353H12.36a.4.4,0,0,0,.4-.353l.31-2.188a5.908,5.908,0,0,0,1.4-.81l2.059.827a.411.411,0,0,0,.508-.19l1.654-2.86a.4.4,0,0,0-.1-.525Zm-6.151,2.291a3.1,3.1,0,1,1,3.1-3.1A3.11,3.11,0,0,1,10.706,13.771Z" transform="translate(1.294 1.33)" fill="#6da95c"/>
</svg>
