<svg id="ic-settings" xmlns="http://www.w3.org/2000/svg" width="30" height="30" viewBox="0 0 30 30">
  <path id="Path_633" data-name="Path 633" d="M0,0H30V30H0Z" fill="none"/>
  <path id="Path_634" data-name="Path 634" d="M23.259,15.575a8.843,8.843,0,0,0,.075-1.175,7.221,7.221,0,0,0-.087-1.175l2.538-1.975a.613.613,0,0,0,.15-.762l-2.4-4.15a.611.611,0,0,0-.737-.275l-2.987,1.2a8.83,8.83,0,0,0-2.025-1.175l-.45-3.175a.6.6,0,0,0-.6-.513h-4.8a.592.592,0,0,0-.588.513L10.9,6.088A9.025,9.025,0,0,0,8.872,7.263l-2.988-1.2a.6.6,0,0,0-.738.275L2.76,10.487a.568.568,0,0,0,.15.762l2.537,1.975a6.954,6.954,0,0,0-.025,2.35L2.885,17.55a.613.613,0,0,0-.15.762l2.4,4.15a.611.611,0,0,0,.738.275l2.988-1.2a8.83,8.83,0,0,0,2.025,1.175l.45,3.175a.614.614,0,0,0,.6.512h4.8a.583.583,0,0,0,.588-.512l.45-3.175A8.574,8.574,0,0,0,19.8,21.537l2.987,1.2a.6.6,0,0,0,.737-.275l2.4-4.15a.579.579,0,0,0-.15-.762ZM14.335,18.9a4.5,4.5,0,1,1,4.5-4.5A4.513,4.513,0,0,1,14.335,18.9Z" transform="translate(0.666 0.6)" fill="#6da95c"/>
</svg>
