<svg xmlns="http://www.w3.org/2000/svg" width="16" height="16" viewBox="0 0 16 16">
  <g id="ic_unsupported" transform="translate(0.021 0.021)">
    <rect id="Rectangle_276" data-name="Rectangle 276" width="16" height="16" transform="translate(-0.021 -0.021)" fill="none"/>
    <path id="Path_666" data-name="Path 666" d="M14.793,15.265l-4.056-4.056L8.948,9.421h0L3.556,4.028h0l-.938-.938h0L1.628,2.1.69,3.038,2.226,4.58v8.757a1.334,1.334,0,0,0,1.33,1.33h8.757L13.849,16.2ZM3.556,13.337V5.91L8.1,10.458l1.549,1.549,1.33,1.33ZM5.438,4.028,4.108,2.7h8.757a1.334,1.334,0,0,1,1.33,1.33v8.757l-1.33-1.33V4.028Z" transform="translate(-0.231 -0.704)" fill="#fff"/>
  </g>
</svg>
