<svg id="icon-alert" xmlns="http://www.w3.org/2000/svg" width="25" height="25" viewBox="0 0 25 25">
  <path id="Path_389" data-name="Path 389" d="M12.5,0A12.5,12.5,0,1,0,25,12.5,12.5,12.5,0,0,0,12.5,0Zm0,22.656A10.156,10.156,0,1,1,22.656,12.5,10.156,10.156,0,0,1,12.5,22.656Zm0-17.174c-.9,0-1.573.467-1.573,1.222v6.922c0,.755.677,1.221,1.573,1.221.873,0,1.573-.485,1.573-1.221V6.7C14.073,5.967,13.374,5.482,12.5,5.482Zm0,10.924a1.56,1.56,0,1,0,1.559,1.561A1.562,1.562,0,0,0,12.5,16.406Z" fill="#fff"/>
</svg>
