<svg id="icon-edit" xmlns="http://www.w3.org/2000/svg" width="17" height="17" viewBox="0 0 17 17">
  <g id="Group_116" data-name="Group 116">
    <g id="Group_115" data-name="Group 115">
      <path id="Path_386" data-name="Path 386" d="M14.875,7.438v6.375a1.063,1.063,0,0,1-1.062,1.063H3.188a1.064,1.064,0,0,1-1.062-1.062V2.125H9.563L11.688,0H2.125A2.126,2.126,0,0,0,0,2.125V13.813A3.188,3.188,0,0,0,3.188,17H13.813A3.187,3.187,0,0,0,17,13.813v-8.5Z" fill="#fff"/>
      <path id="Path_387" data-name="Path 387" d="M134.881,252.667l4.25-1.062-1.594-1.594-1.594-1.594Z" transform="translate(-130.403 -240.169)" fill="#fff"/>
      <path id="Path_388" data-name="Path 388" d="M192.256,7.588l3,3.006,7.39-7.39a.66.66,0,0,0,.2-.419.489.489,0,0,0-.137-.392L200.538.223,200.455.14A.492.492,0,0,0,200.1,0a.651.651,0,0,0-.459.2l-.023.023L197.5,2.348Z" transform="translate(-185.872)" fill="#fff"/>
    </g>
  </g>
</svg>
