<svg xmlns="http://www.w3.org/2000/svg" width="17" height="17" viewBox="0 0 17 17">
  <path id="icon-save" d="M16.17,2.138,14.862.83a2.83,2.83,0,0,0-2-.83H1.948A1.948,1.948,0,0,0,0,1.948v13.1A1.948,1.948,0,0,0,1.948,17h13.1A1.948,1.948,0,0,0,17,15.052V4.141a2.83,2.83,0,0,0-.83-2ZM2.833,4.427V2.656a.531.531,0,0,1,.531-.531H10.8a.531.531,0,0,1,.531.531V4.427a.531.531,0,0,1-.531.531H3.365A.531.531,0,0,1,2.833,4.427ZM8.5,14.167a3.188,3.188,0,1,1,3.188-3.187A3.188,3.188,0,0,1,8.5,14.167Zm0,0" transform="translate(0 0)" fill="#47a5b1"/>
</svg>
