<svg xmlns="http://www.w3.org/2000/svg" width="24" height="24" viewBox="0 0 24 24">
  <g id="icon-edit-only" transform="translate(-598 -247)">
    <rect id="Rectangle_283" data-name="Rectangle 283" width="24" height="24" transform="translate(598 247)" fill="none"/>
    <g id="edit_2_" data-name="edit (2)" transform="translate(601 250)">
      <g id="Group_121" data-name="Group 121">
        <g id="Group_120" data-name="Group 120">
          <rect id="Rectangle_282" data-name="Rectangle 282" width="5.939" height="11.827" transform="matrix(-0.707, -0.707, 0.707, -0.707, 7.075, 16.127)" fill="#fff"/>
          <path id="Path_391" data-name="Path 391" d="M350.071,2.867,347.552.348A1.184,1.184,0,0,0,346.719,0h-.013a1.181,1.181,0,0,0-.833.348l-1.681,1.679,4.2,4.2,1.679-1.679a1.183,1.183,0,0,0,.348-.833V3.7A1.183,1.183,0,0,0,350.071,2.867Z" transform="translate(-331.419)" fill="#fff"/>
          <path id="Path_392" data-name="Path 392" d="M0,370.386l5.458-1.26-4.2-4.2Z" transform="translate(0 -351.386)" fill="#fff"/>
        </g>
      </g>
    </g>
  </g>
</svg>
