<svg xmlns="http://www.w3.org/2000/svg" width="18" height="16.822" viewBox="0 0 18 16.822">
  <g id="icon-calendar" transform="translate(-1 -2)">
    <path id="Path_395" data-name="Path 395" d="M17.037,2H15.355V3.682a.561.561,0,0,1-1.121,0V2H5.262V3.682a.561.561,0,0,1-1.121,0V2H2.458A1.544,1.544,0,0,0,1,3.682V5.7H18.944V3.682A1.892,1.892,0,0,0,17.037,2ZM1,6.879V17.14a1.522,1.522,0,0,0,1.514,1.682H17.093A1.892,1.892,0,0,0,19,17.14V6.879ZM5.991,16.3H4.645A.442.442,0,0,1,4.2,15.85v-1.4A.442.442,0,0,1,4.645,14h1.4a.442.442,0,0,1,.449.449v1.4a.491.491,0,0,1-.5.449Zm0-5.047H4.645A.442.442,0,0,1,4.2,10.8V9.4a.442.442,0,0,1,.449-.449h1.4A.442.442,0,0,1,6.5,9.4v1.4a.491.491,0,0,1-.5.449ZM10.477,16.3h-1.4a.442.442,0,0,1-.449-.449v-1.4A.442.442,0,0,1,9.075,14h1.4a.442.442,0,0,1,.449.449v1.4A.413.413,0,0,1,10.477,16.3Zm0-5.047h-1.4a.442.442,0,0,1-.449-.449V9.4a.442.442,0,0,1,.449-.449h1.4a.442.442,0,0,1,.449.449v1.4A.413.413,0,0,1,10.477,11.252ZM14.963,16.3h-1.4a.442.442,0,0,1-.449-.449v-1.4A.442.442,0,0,1,13.561,14h1.4a.442.442,0,0,1,.449.449v1.4A.413.413,0,0,1,14.963,16.3Zm0-5.047h-1.4a.442.442,0,0,1-.449-.449V9.4a.442.442,0,0,1,.449-.449h1.4a.442.442,0,0,1,.449.449v1.4A.413.413,0,0,1,14.963,11.252Z" fill="#fff"/>
  </g>
</svg>
