<svg xmlns="http://www.w3.org/2000/svg" width="17.667" height="17" viewBox="0 0 17.667 17">
  <g id="icon-download-file" transform="translate(-5631 -380)">
    <g id="download-file" transform="translate(5632 376.864)">
      <g id="Group_128" data-name="Group 128" transform="translate(0 3.136)">
        <g id="Group_127" data-name="Group 127" transform="translate(0 0)">
          <path id="Path_399" data-name="Path 399" d="M12.654,11.629V6.36L9.43,3.136H1.406A1.408,1.408,0,0,0,0,4.542V17.2A1.407,1.407,0,0,0,1.406,18.6h7.51a4.906,4.906,0,0,1,3.738-6.974ZM6.327,13.681H2.109V12.275H6.327Zm2.109-2.812H2.109V9.463H8.436Zm0-7.03,3.515,3.515H8.436Z" transform="translate(0 -3.136)" fill="#fff"/>
          <path id="Path_400" data-name="Path 400" d="M310.541,304.117l-1.612,1.612V301.8h-1.406v3.926l-1.612-1.612-.994.994,3.309,3.309,3.309-3.309Z" transform="translate(-294.869 -291.961)" fill="#fff"/>
        </g>
      </g>
    </g>
    <rect id="Rectangle_298" data-name="Rectangle 298" width="17" height="17" transform="translate(5631 380)" fill="none"/>
  </g>
</svg>
