<svg xmlns="http://www.w3.org/2000/svg" width="26" height="26" viewBox="0 0 26 26">
  <g id="icon-signup" transform="translate(0.111)">
    <rect id="Rectangle_252" data-name="Rectangle 252" width="26" height="26" transform="translate(-0.111)" fill="none"/>
    <g id="profile-user" transform="translate(3.889 4)">
      <path id="Path_372" data-name="Path 372" d="M9,0a9,9,0,1,0,9,9A9,9,0,0,0,9,0ZM9,2.692A2.977,2.977,0,1,1,6.024,5.669,2.977,2.977,0,0,1,9,2.692ZM9,15.647a6.605,6.605,0,0,1-4.3-1.586,1.269,1.269,0,0,1-.445-.964,3,3,0,0,1,3.017-3h3.464a3,3,0,0,1,3.012,3,1.265,1.265,0,0,1-.445.964A6.6,6.6,0,0,1,9,15.647Z" transform="translate(0 -0.001)" fill="#9fbb3b"/>
    </g>
  </g>
</svg>
