<svg xmlns="http://www.w3.org/2000/svg" width="22" height="12.994" viewBox="0 0 22 12.994">
  <g id="icon-gotop" transform="translate(22 113.692) rotate(180)">
    <g id="Group_189" data-name="Group 189" transform="translate(0 100.698)">
      <path id="Path_407" data-name="Path 407" d="M21.648,101.784l-.721-.726a1.206,1.206,0,0,0-1.7,0L11,109.279l-8.23-8.23a1.207,1.207,0,0,0-1.7,0l-.721.721a1.2,1.2,0,0,0,0,1.7l9.8,9.834a1.23,1.23,0,0,0,.853.386h0a1.23,1.23,0,0,0,.851-.386l9.79-9.807a1.215,1.215,0,0,0,.352-.86A1.2,1.2,0,0,0,21.648,101.784Z" transform="translate(0 -100.698)" fill="#f1c71d"/>
    </g>
  </g>
</svg>
