<svg xmlns="http://www.w3.org/2000/svg" width="15.667" height="15.675" viewBox="0 0 15.667 15.675">
  <path id="icon-delete" d="M10.55,7.911a.1.1,0,0,1,0-.147l4.935-4.937a1.084,1.084,0,0,0,0-1.531L14.506.317a1.082,1.082,0,0,0-1.531,0L8.041,5.254a.1.1,0,0,1-.146,0L2.96.317a1.082,1.082,0,0,0-1.531,0L.451,1.3a1.084,1.084,0,0,0,0,1.531L5.385,7.764a.1.1,0,0,1,0,.147L.451,12.848a1.084,1.084,0,0,0,0,1.531l.978.979a1.082,1.082,0,0,0,1.531,0l4.935-4.937a.1.1,0,0,1,.146,0l4.935,4.937a1.082,1.082,0,0,0,1.531,0l.978-.979a1.084,1.084,0,0,0,0-1.531Z" transform="translate(-0.134)" fill="#e85500"/>
</svg>
