<svg xmlns="http://www.w3.org/2000/svg" width="17.694" height="17" viewBox="0 0 17.694 17">
  <g id="icon-download" transform="translate(-5631 -278)">
    <g id="download-to-storage-drive" transform="translate(5631 259.73)">
      <g id="Group_126" data-name="Group 126" transform="translate(0 18.27)">
        <path id="Path_396" data-name="Path 396" d="M17.4,310.931a.984.984,0,0,0-.723-.3H11.739l-1.446,1.446a2.054,2.054,0,0,1-2.892,0l-1.436-1.446H1.021a.985.985,0,0,0-.723.3.984.984,0,0,0-.3.723v3.4a.984.984,0,0,0,.3.723.985.985,0,0,0,.723.3H16.674a1.016,1.016,0,0,0,1.021-1.021v-3.4A.984.984,0,0,0,17.4,310.931Zm-3.987,3.583a.668.668,0,1,1,.2-.478A.655.655,0,0,1,13.409,314.514Zm2.722,0a.667.667,0,1,1,.2-.478A.654.654,0,0,1,16.131,314.514Z" transform="translate(0 -299.744)" fill="#fff"/>
        <path id="Path_397" data-name="Path 397" d="M96.044,29.638a.668.668,0,0,0,.957,0l4.764-4.764a.614.614,0,0,0,.149-.744.636.636,0,0,0-.627-.415H98.564V18.951a.69.69,0,0,0-.68-.681H95.161a.69.69,0,0,0-.681.681v4.764H91.758a.636.636,0,0,0-.627.415.614.614,0,0,0,.149.744Z" transform="translate(-87.675 -18.27)" fill="#fff"/>
      </g>
    </g>
    <rect id="Rectangle_296" data-name="Rectangle 296" width="17" height="17" transform="translate(5631 278)" fill="none"/>
  </g>
</svg>
