<svg id="icon-notice" xmlns="http://www.w3.org/2000/svg" width="35" height="35" viewBox="0 0 35 35">
  <path id="Path_389" data-name="Path 389" d="M17.5,0A17.5,17.5,0,1,0,35,17.5,17.5,17.5,0,0,0,17.5,0Zm0,31.719A14.219,14.219,0,1,1,31.719,17.5,14.218,14.218,0,0,1,17.5,31.719Zm0-24.044c-1.253,0-2.2.654-2.2,1.711v9.691c0,1.058.948,1.71,2.2,1.71,1.223,0,2.2-.679,2.2-1.71V9.385C19.7,8.354,18.724,7.675,17.5,7.675Zm0,15.294a2.184,2.184,0,1,0,2.183,2.185A2.187,2.187,0,0,0,17.5,22.969Z" fill="#e85500"/>
</svg>
