<svg xmlns="http://www.w3.org/2000/svg" width="17" height="21.612" viewBox="0 0 17 21.612">
  <g id="icon-info" transform="translate(-3.1 -0.5)">
    <path id="Path_406" data-name="Path 406" d="M17.3.5H10.063A1.928,1.928,0,0,0,8.978.771a2.135,2.135,0,0,0-.814.543L4,5.293a1.969,1.969,0,0,0-.633.814A2.5,2.5,0,0,0,3.1,7.282V19.309a2.817,2.817,0,0,0,2.8,2.8H17.3a2.817,2.817,0,0,0,2.8-2.8V3.3A2.817,2.817,0,0,0,17.3.5ZM7.35,18.585H6.988a.972.972,0,0,1-.9-.9.906.906,0,0,1,.9-.9H7.35a.906.906,0,0,1,.9.9A.854.854,0,0,1,7.35,18.585Zm0-3.617H6.988a.9.9,0,1,1,0-1.809H7.35a.972.972,0,0,1,.9.9A.906.906,0,0,1,7.35,14.968Zm0-3.617H6.988a.972.972,0,0,1-.9-.9.906.906,0,0,1,.9-.9H7.35a.906.906,0,0,1,.9.9A.854.854,0,0,1,7.35,11.351Zm8.862,7.234H10.967a.906.906,0,0,1-.9-.9.854.854,0,0,1,.9-.9h5.245a.906.906,0,0,1,.9.9A.854.854,0,0,1,16.212,18.585Zm0-3.617H10.967a.9.9,0,1,1,0-1.809h5.245a.972.972,0,0,1,.9.9A.906.906,0,0,1,16.212,14.968Zm0-3.617H10.967a.906.906,0,0,1-.9-.9.854.854,0,0,1,.9-.9h5.245a.906.906,0,0,1,.9.9A.854.854,0,0,1,16.212,11.351Z" fill="#47a5b1"/>
  </g>
</svg>
