<svg id="logo" xmlns="http://www.w3.org/2000/svg" width="268.427" height="48.951" viewBox="0 0 268.427 48.951">
  <g id="Group_12" data-name="Group 12" transform="translate(85 20.749)">
    <g id="Group_10" data-name="Group 10" transform="translate(0 0)">
      <g id="Group_9" data-name="Group 9">
        <path id="Path_14" data-name="Path 14" d="M83.373,94.036h7.084L81.234,83.242l1.571-.251c5.6-1.4,5.28-6.667,5.28-8.655,0-3.459-2.891-5.764-6.1-6.266a33.4,33.4,0,0,0-4.361-.251H66.33v26.2h6.1V84.044h2.891ZM72.412,79.783V72.7h2.974a26.362,26.362,0,0,1,2.723.084A2.737,2.737,0,0,1,80.5,73.852a5.677,5.677,0,0,1,.5,2.723c-.084,1.8-1.069,3.208-2.974,3.208H72.412Z" transform="translate(-38.711 -67.352)" fill="#4c4948" stroke="#f2f2f2" stroke-width="1.5"/>
        <path id="Path_15" data-name="Path 15" d="M104.914,71.166c-2.473-2.389-5.848-3.626-10.209-3.626S86.952,68.776,84.5,71.166c-2.473,2.473-3.626,5.764-3.626,10.059,0,4.277,1.153,7.586,3.626,10.059,2.389,2.473,5.848,3.709,10.209,3.709s7.753-1.236,10.209-3.626c2.473-2.473,3.626-5.681,3.626-10.059C108.623,76.847,107.387,73.555,104.914,71.166ZM100.8,86.488a5.9,5.9,0,0,1-6.015,4.043,6.887,6.887,0,0,1-6.516-4.444,16.383,16.383,0,0,1-.652-4.862,16.95,16.95,0,0,1,.652-4.862,6.368,6.368,0,0,1,3.292-3.96,7.591,7.591,0,0,1,6.516.334,6.689,6.689,0,0,1,2.723,3.626,16.383,16.383,0,0,1,.652,4.862A13.408,13.408,0,0,1,100.8,86.488Z" transform="translate(-28.956 -67.54)" fill="#4c4948" stroke="#f2f2f2" stroke-width="1.5"/>
        <path id="Path_16" data-name="Path 16" d="M123.083,67.88h-6.516V84.522c0,5.681-2.807,6.433-5.28,6.433-2.222-.084-5.28-.585-5.28-6.433V67.88H99.49V85.023c0,3.208.9,5.514,2.891,7.168,1.972,1.654,5.029,2.556,8.906,2.556,3.96,0,7-.819,8.973-2.556,1.888-1.654,2.807-3.96,2.807-7.168l.017-17.143Z" transform="translate(-16.465 -67.312)" fill="#4c4948" stroke="#f2f2f2" stroke-width="1.5"/>
        <path id="Path_17" data-name="Path 17" d="M133.825,82.874c2.306-1.487,3.375-4.043,3.375-7.252,0-5.848-4.361-7.753-10.627-7.753H115.78v26.2h6.182V84.512h4.528A14.612,14.612,0,0,0,133.825,82.874Zm-5.447-3.124a5.779,5.779,0,0,1-3.375.819h-3.041V72.1h4.378a5.294,5.294,0,0,1,2.139.5c.9.418,1.571,2.139,1.571,3.375C130.032,77.945,129.448,79.015,128.378,79.75Z" transform="translate(-5.537 -67.319)" fill="#4c4948" stroke="#f2f2f2" stroke-width="1.5"/>
        <path id="Path_18" data-name="Path 18" d="M50.869,87.613a9.12,9.12,0,0,0,3.208,4.043,10.3,10.3,0,0,0,3.542,1.738,22.415,22.415,0,0,0,5.43.585H73.593V79.142H62.164v4.277h5.514v5.764H65.707c-3.041,0-5.764,0-7.084-1.487s-1.738-2.64-1.738-6.1c0-3.876.585-6.349,2.306-7.669,1.4-1.069,3.626-1.32,6.583-1.32h7.82V67.83H63.217c-4.612,0-8.07,1.069-10.209,3.292-2.139,2.139-3.208,5.6-3.208,10.292A16.118,16.118,0,0,0,50.869,87.613Z" transform="translate(-49.8 -67.345)" fill="#4c4948" stroke="#f2f2f2" stroke-width="1.5"/>
      </g>
    </g>
  </g>
  <g id="Group_95" data-name="Group 95" transform="translate(221.427)">
    <path id="Path_19" data-name="Path 19" d="M179.3,80.212c-.569-1.642-12.189-23.442-13.513-25.934l-4.69,7.81c.685,1.24,8.01,15.23,8.474,16.309l.116.23a2.324,2.324,0,0,1-.29,2.205,2.6,2.6,0,0,1-2.008,1.022H145.01a2.534,2.534,0,0,1-2.519-2.492,2.623,2.623,0,0,1,.232-1.08h0c.348-.678,7.789-14.954,8.416-16.252l-4.748-7.81c-1.37,2.55-13.106,24.521-13.513,25.992a5.666,5.666,0,0,0,.975,5.375,7.332,7.332,0,0,0,5.386,2.883h33.375a6.872,6.872,0,0,0,5.781-2.837A6.2,6.2,0,0,0,179.3,80.212Z" transform="translate(-132.596 -40.177)" fill="#c0ab16"/>
    <path id="Path_20" data-name="Path 20" d="M159.691,51.023h0a5.792,5.792,0,0,0,.417-2.289,6.264,6.264,0,1,0-12.529,0A5.5,5.5,0,0,0,148,50.963c1.18,3.35,4.935,7.224,5.877,11.229.823-3.409,4.47-8,5.758-10.931a.343.343,0,0,1,.06-.238Z" transform="translate(-130.35 -42.44)" fill="#f1c71d"/>
  </g>
  <g id="Group_96" data-name="Group 96" transform="translate(0 21.902)">
    <g id="Group_7" data-name="Group 7">
      <path id="Path_11" data-name="Path 11" d="M12.849,89.15a16.9,16.9,0,0,1-3.375-.334A4.924,4.924,0,0,1,7.5,87.58a2.12,2.12,0,0,1-.652-1.32A13.25,13.25,0,0,1,6.6,83.135V67.73H0V83.3a14.584,14.584,0,0,0,.585,4.779A7.725,7.725,0,0,0,2.64,91.206a9.477,9.477,0,0,0,3.626,2.139,22.924,22.924,0,0,0,6.1.585h7.9V89.067H12.849Z" transform="translate(0 -67.713)" fill="#333"/>
      <path id="Path_12" data-name="Path 12" d="M26.415,67.737c-4.7,0-8.237,1.153-10.46,3.292-2.222,2.222-3.375,5.681-3.375,10.209a15.755,15.755,0,0,0,1.153,6.182,9.8,9.8,0,0,0,3.375,4.194,12.724,12.724,0,0,0,3.709,1.8,23.1,23.1,0,0,0,5.43.5H36.791V88.89H26.5c-2.473,0-4.194-.585-5.2-1.654-.986-1.069-1.487-3.041-1.487-5.764,0-3.208.5-5.43,1.571-6.834.986-1.32,2.723-1.972,5.113-1.972H36.707V67.72C36.707,67.737,26.415,67.737,26.415,67.737Z" transform="translate(8.439 -67.72)" fill="#333"/>
    </g>
    <path id="Path_13" data-name="Path 13" d="M49.754,67.73l-.084.167-6.917,9.39L35.919,67.9l-.084-.167H28.25l.334.5L39.461,82.484V94.013h6.667V82.484L57.173,68.231l.334-.5Z" transform="translate(18.952 -67.713)" fill="#333"/>
  </g>
</svg>
