<svg xmlns="http://www.w3.org/2000/svg" width="464" height="44.032" viewBox="0 0 464 44.032">
  <g id="home-logo" transform="translate(-51 -34)">
    <g id="Group_195" data-name="Group 195" transform="translate(-33 3)">
      <text id="工程智能管理系統" transform="translate(290 54)" fill="#fff" font-size="20" font-family="NotoSansCJKtc-Medium, Noto Sans CJK TC" font-weight="500" letter-spacing="0.05em"><tspan x="0" y="0">工程智能管理系統</tspan></text>
      <text id="Engineering_Intelligent_Management_EIM_" data-name="Engineering Intelligent Management (EIM)" transform="translate(290 71)" fill="#fff" font-size="12" font-family="NotoSansCJKtc-Regular, Noto Sans CJK TC" letter-spacing="0.05em"><tspan x="0" y="0">Engineering Intelligent Management (EIM)</tspan></text>
      <rect id="Rectangle_257" data-name="Rectangle 257" width="1" height="40" transform="translate(273 35)" fill="#fff"/>
    </g>
    <g id="lcy_group_logo" transform="translate(51 -5.44)">
      <g id="Group_12" data-name="Group 12" transform="translate(0 42.44)">
        <g id="Group_10" data-name="Group 10" transform="translate(0 24.504)">
          <g id="Group_8" data-name="Group 8" transform="translate(0 0.18)">
            <g id="Group_7" data-name="Group 7">
              <path id="Path_11" data-name="Path 11" d="M7.7,80.57a10.132,10.132,0,0,1-2.023-.2A2.951,2.951,0,0,1,4.5,79.628a1.271,1.271,0,0,1-.391-.791,7.942,7.942,0,0,1-.15-1.873V67.73H0v9.334a8.742,8.742,0,0,0,.351,2.864A4.631,4.631,0,0,0,1.582,81.8a5.681,5.681,0,0,0,2.173,1.282,13.741,13.741,0,0,0,3.656.351h4.737V80.52H7.7Z" transform="translate(0 -67.72)" fill="#fff"/>
              <path id="Path_12" data-name="Path 12" d="M20.873,67.73c-2.814,0-4.938.691-6.27,1.973-1.332,1.332-2.023,3.405-2.023,6.12a9.444,9.444,0,0,0,.691,3.706,5.876,5.876,0,0,0,2.023,2.514,7.627,7.627,0,0,0,2.223,1.082,13.845,13.845,0,0,0,3.255.3h6.32V80.41h-6.17a4.139,4.139,0,0,1-3.115-.992,5.189,5.189,0,0,1-.891-3.455,6.784,6.784,0,0,1,.941-4.1,3.61,3.61,0,0,1,3.065-1.182h6.12V67.72C27.042,67.73,20.873,67.73,20.873,67.73Z" transform="translate(0.02 -67.72)" fill="#fff"/>
            </g>
            <path id="Path_13" data-name="Path 13" d="M41.14,67.73l-.05.1-4.146,5.629-4.1-5.629-.05-.1H28.25l.2.3,6.52,8.543v6.911h4V76.574l6.62-8.543.2-.3Z" transform="translate(0.044 -67.72)" fill="#fff"/>
          </g>
          <g id="Group_9" data-name="Group 9" transform="translate(49.878)">
            <path id="Path_14" data-name="Path 14" d="M76.546,83.534h4.247l-5.529-6.47.941-.15c3.355-.841,3.165-4,3.165-5.188a3.992,3.992,0,0,0-3.656-3.756,20.017,20.017,0,0,0-2.614-.15H66.33v15.7h3.656V77.545h1.733Zm-6.57-8.543V70.745h1.783a15.8,15.8,0,0,1,1.633.05,1.641,1.641,0,0,1,1.432.641,3.4,3.4,0,0,1,.3,1.633,1.78,1.78,0,0,1-1.783,1.923H69.976Z" transform="translate(-49.774 -67.54)" fill="#fff"/>
            <path id="Path_15" data-name="Path 15" d="M95.282,69.713a8.423,8.423,0,0,0-6.12-2.173,8.407,8.407,0,0,0-6.12,2.173,8.063,8.063,0,0,0-2.173,6.029,8.078,8.078,0,0,0,2.173,6.029A8.166,8.166,0,0,0,89.163,84a8.406,8.406,0,0,0,6.12-2.173,7.988,7.988,0,0,0,2.173-6.029A7.776,7.776,0,0,0,95.282,69.713ZM92.819,78.9a3.535,3.535,0,0,1-3.606,2.424,4.128,4.128,0,0,1-3.906-2.664,9.82,9.82,0,0,1-.391-2.915,10.16,10.16,0,0,1,.391-2.915,3.817,3.817,0,0,1,1.973-2.374,4.55,4.55,0,0,1,3.906.2,4.009,4.009,0,0,1,1.633,2.173,9.821,9.821,0,0,1,.391,2.915A8.037,8.037,0,0,1,92.819,78.9Z" transform="translate(-49.752 -67.54)" fill="#fff"/>
            <path id="Path_16" data-name="Path 16" d="M113.632,67.88h-3.906v9.976c0,3.405-1.683,3.856-3.165,3.856-1.332-.05-3.165-.351-3.165-3.856V67.88H99.49V78.156a5.174,5.174,0,0,0,1.733,4.3,8.251,8.251,0,0,0,5.338,1.532c2.374,0,4.2-.491,5.378-1.532a5.33,5.33,0,0,0,1.683-4.3l.01-10.276Z" transform="translate(-49.723 -67.539)" fill="#fff"/>
            <path id="Path_17" data-name="Path 17" d="M126.6,76.864a4.843,4.843,0,0,0,2.023-4.347c0-3.505-2.614-4.647-6.37-4.647h-6.47v15.7h3.706V77.845H122.2A8.759,8.759,0,0,0,126.6,76.864Zm-3.265-1.873a3.464,3.464,0,0,1-2.023.491h-1.823V70.4h2.624a3.174,3.174,0,0,1,1.282.3,2.5,2.5,0,0,1,.941,2.023A2.46,2.46,0,0,1,123.332,74.991Z" transform="translate(-49.697 -67.539)" fill="#fff"/>
            <path id="Path_18" data-name="Path 18" d="M50.441,79.688a5.467,5.467,0,0,0,1.923,2.424,6.172,6.172,0,0,0,2.123,1.042,13.437,13.437,0,0,0,3.255.351h6.32V74.611H57.212v2.564h3.305V80.63H59.335c-1.823,0-3.455,0-4.247-.891s-1.042-1.582-1.042-3.656c0-2.324.351-3.806,1.382-4.6.841-.641,2.173-.791,3.946-.791h4.687V67.83h-6.22c-2.764,0-4.838.641-6.12,1.973-1.282,1.282-1.923,3.355-1.923,6.17A9.662,9.662,0,0,0,50.441,79.688Z" transform="translate(-49.8 -67.54)" fill="#fff"/>
          </g>
        </g>
        <g id="Group_11" data-name="Group 11" transform="translate(132.45)">
          <path id="Path_19" data-name="Path 19" d="M172.893,76.4C172.4,75,162.376,56.4,161.235,54.269l-4.046,6.666c.591,1.059,6.911,13,7.311,13.92l.1.2a1.966,1.966,0,0,1-.25,1.882,2.253,2.253,0,0,1-1.733.872h-19.31a2.175,2.175,0,0,1-2.173-2.127,2.219,2.219,0,0,1,.2-.921h0c.3-.578,6.72-12.763,7.261-13.871l-4.1-6.666C143.317,56.4,133.191,75.149,132.84,76.4a4.8,4.8,0,0,0,.841,4.588,6.347,6.347,0,0,0,4.647,2.46h28.795a5.951,5.951,0,0,0,4.988-2.421A5.248,5.248,0,0,0,172.893,76.4Z" transform="translate(-132.596 -42.422)" fill="#fff"/>
          <path id="Path_20" data-name="Path 20" d="M157.756,49.651h0a4.867,4.867,0,0,0,.351-1.923,5.263,5.263,0,1,0-10.526,0,4.623,4.623,0,0,0,.351,1.873c.992,2.814,4.146,6.069,4.938,9.435.691-2.864,3.756-6.72,4.838-9.184a.288.288,0,0,1,.05-.2Z" transform="translate(-132.573 -42.44)" fill="#fff"/>
        </g>
      </g>
    </g>
  </g>
</svg>
