<svg xmlns="http://www.w3.org/2000/svg" width="2074.821" height="1061.534" viewBox="0 0 2074.821 1061.534">
  <g id="world-map" transform="translate(0 0)" opacity="0.19">
    <path id="Path_373" data-name="Path 373" d="M402.937,320.4l-8.948,11.926-5.961,5.964L376.1,344.847l-1.791,5.368s-4.772,4.772-4.173,7.755a56.481,56.481,0,0,1,.6,8.349s-8.349,7.753-11.928,10.137-8.351,7.753-8.351,7.753a34.055,34.055,0,0,1-4.769,4.772c-1.788,1.192-4.769,4.769-7.156,8.349s-4.772,5.961-5.964,7.75-4.772,5.964-6.56,12.524-6.56,14.313-6.56,14.313l-1.195,2.981c.6,10.14.6,11.928,1.791,15.508s2.387,2.382,1.192,10.137-1.192,10.733-2.385,14.313-4.772,10.134-5.961,13.12,2.385,8.346,2.385,8.346,1.791,7.755.6,9.544.6,5.368.6,5.368,7.156,4.173,9.544,6.56,6.56,5.964,7.156,7.753,5.368,10.14,5.964,11.928,5.368,8.346,6.56,10.137,7.156,8.351,7.156,8.351,7.753,5.959,9.544,8.346,7.156,3.577,8.942,5.365,5.964,1.19,8.349,2.983,7.156-1.2,9.544,0,8.948-1.192,10.736-2.385,5.962-5.365,8.945-3.58,4.769,0,7.156.6,5.961-2.382,8.346-2.382,8.349-2.387,10.137-2.387,7.755-3.582,10.142-3.582,5.365-2.379,8.346-1.19,1.788-2.382,7.156-.6,7.156,0,8.945,1.786,4.178.005,5.967,2.39,4.769,4.17,5.365,6.558,4.173,4.774,4.173,4.774l3.58.594s4.775-3.577,5.964-1.19,6.56,1.791,6.56,1.791l5.365,5.961L507.9,582.2s3.58,9.544,2.981,13.12-.6,11.329-2.385,13.118-2.981,9.544-2.981,9.544-2.387,2.385,2.981,7.156a81.846,81.846,0,0,1,10.736,11.327c1.791,2.387,6.563,8.95,7.154,13.123s1.791,6.558,4.178,11.926,5.365,5.964,5.961,11.931,1.788,5.964,1.192,10.135-2.385,4.772-.6,7.753,4.17,8.351,3.58,10.14-1.791,9.541-1.791,9.541l-1.192,3.58-5.365,10.142-3.58,5.363c-1.192,4.173-3.577,8.349-2.981,14.313s-2.981,5.962,1.788,11.923,7.154,12.527,10.137,17.895a47.934,47.934,0,0,1,5.365,14.31c.6,3.58,2.983,4.775,4.176,9.544s1.788,7.154,1.788,10.137-.6,10.736.6,12.524,1.788,7.159,2.385,9.544-1.791,2.983,1.788,7.159,5.964,6.558,8.349,9.541,1.788,1.788,3.58,5.964,4.173,6.563,4.772,10.137,1.19,12.522,2.981,16.7,4.173,8.351,4.173,8.351,6.563,4.173,8.948,3.577,7.156-5.959,10.736-4.173,6.56,0,9.541,0,5.964-3.58,8.948-3.58,7.154-4.772,9.544-3.577,5.363-1.2,8.346-4.178,4.772-5.363,10.137-10.135,4.772-4.774,8.349-7.755,7.159-9.544,11.332-10.736,5.365-5.363,6.558-8.346,1.788-4.772,3.579-7.159.6.6,3.58-7.154,6.566-10.733,9.546-12.524,4.769-5.365,6.558-5.964,4.772,1.788,3.58-3.58,0-13.118-1.19-14.906-2.986,4.17-2.387-4.777,7.156-17.89,7.156-17.89,8.945-11.329,11.928-13.118,3.577-3.577,7.755-5.964,13.118-8.346,13.118-11.329,3.579-10.736,3.579-12.527,0-3.577-1.19-13.717,1.19-7.753-2.387-17.294-4.178-21.469-6.56-24.45-1.2-10.739-1.2-13.12,4.178-8.349,5.967-10.733S741.09,631.1,741.09,631.1s11.926-13.714,16.1-20.272,8.349-12.524,11.329-14.909,10.14-7.758,14.313-13.719,12.524-17.291,13.123-19.085,5.363-7.75,5.363-7.75,6.56-7.755,7.755-11.928,7.151-27.433,5.959-26.241-8.346,2.385-10.733,2.981,3.582,2.981-13.717,1.791-26.236,1.788-26.236,1.788c-5.371-1.195-9.544,4.769-11.335-3.58s-2.983-13.118-6.558-19.082-5.967-8.349-11.329-16.1-4.774-4.176-9.546-10.134-5.964-4.178-8.945-11.928-5.365-4.769-8.945-15.505-5.964-11.931-7.753-17.892-4.173-7.755-5.368-13.12-14.906-32.8-16.7-34.59-4.772-11.332-4.176-9.541,8.948,7.753,8.948,7.753,4.769-1.791,6.56-1.791,8.945,6.563,8.945,8.945,12.53,13.719,15.508,22.068,6.566,14.313,7.156,16.7,6.56,11.928,8.948,15.508,10.134,10.733,11.327,14.313,12.527,15.505,12.527,23.258,5.363,17.89,5.961,20.274,11.329,5.371,11.329,5.371l14.315-3.58s21.467-13.719,23.854-13.719,21.472-8.945,21.472-8.945,7.75-7.154,13.115-11.327,11.332-11.926,12.527-15.508,3.577-4.173,8.346-9.544,11.332-10.733,7.159-14.313-6.563-2.385-12.524-8.349-5.368-4.769-9.544-12.524.6-16.7-8.351-7.75-5.365,11.329-14.313,13.123-12.524,7.75-16.7,1.786-8.346-2.385-10.736-11.332-4.176-9.544-4.769-13.118,0-3.58-4.772-12.527-1.192-22.661,1.788-14.909,7.753,8.945,15.508,14.313,11.332,9.544,18.486,10.14,13.121,0,14.313,1.19,2.385-.594,5.368.6,4.17-1.786,5.365,2.981,7.753,5.368,10.733,8.349,2.983,1.791,10.739,2.981a150.065,150.065,0,0,0,18.491,1.195l11.327-.6,13.121,1.19s9.546,5.368,11.928,5.368,2.981,6.563,8.945,10.14,7.156,4.173,10.733,8.349,2.983,5.964,7.753,10.137,12.53-.594,13.722-2.379,7.151-4.772,5.964,0,5.959,2.978,4.17,14.313-2.983,8.346,0,16.1,16.1,31.606,16.7,38.763,4.173,4.772,4.769,11.335,4.173,8.942,4.173,13.714,4.178,5.961,4.772,9.544,7.159.594,8.948,0,10.137-8.351,10.137-8.351,3.585-1.19,2.983-7.156,0-4.769,0-13.714-3.577-8.945-1.788-17.887,6.557-14.315,7.753-18.488,5.964-11.329,8.346-11.928,15.508-7.154,18.491-11.332,7.753-8.945,12.524-13.714,13.118-10.733,14.909-8.945,1.193,1.192,4.176,1.192,8.349,2.387,12.522,2.983,12.527,10.733,14.315,16.1.6,4.173,7.156,11.928,12.524,2.978,12.524,12.522,0,8.945,2.983,12.524,6.557-6.56,10.134-5.365,4.173-1.192,7.154,8.349,4.769,9.544,5.371,19.085-.6.6-.6,8.346-.6,8.351.6,15.505,5.36,9.546,4.769,10.739c0,0,3.577-10.137,2.382-17.3s0-17.291,2.983-20.272,5.967-5.964,8.349,1.788,3.58,1.788,8.945,10.733,10.14,7.154,10.736,11.329,3.585,4.775,7.753,8.349,7.752-.594,12.524-4.173,17.89-16.7,18.491-22.068,5.962-4.176-3.582-17.887-9.544-18.488-19.681-26.837-16.1-8.945-8.343-19.681,11.332-17.89,16.1-14.906,13.115,2.382,13.115,14.313-2.385,25.046,5.964,10.733,12.527-22.661,10.137-20.272,5.368-4.772,5.368-4.772.6-5.368,10.739-7.753,13.115-3.58,16.7-5.368,13.717-13.719,15.5-19.085,6.56-14.909,5.368-19.082-7.159-24.45-8.351-23.856-.594.6-8.344-7.75S1282,334.124,1280.8,330.544s-4.176-4.176-.6-8.945,5.371-4.173,5.967-8.349,5.363-7.753-3.582-4.769-2.385,1.195-10.137.6-28.027,4.173-17.887-8.349,13.113-20.274,14.9-20.274,10.739-10.14,11.332-.6,4.173,7.154,4.772,13.118,12.524-6.558,12.524-6.558a18.671,18.671,0,0,1,7.154,4.173c2.981,2.981,2.983,12.524,2.983,12.524s-2.385-2.983,4.176,1.788,13.714,2.385,13.714,12.524,0,10.736,4.176,13.12,8.346,1.195,11.931-1.788,9.538-13.717,9.538-13.717.6-4.176-8.945-10.14-15.505-10.134-19.079-13.118-2.387-11.926,1.187-15.508,5.368-5.368,4.176-10.137,1.791-8.351,10.736-7.755,10.734-.594,10.734-.594,1.794,1.19,1.794-2.387,11.327-20.277,8.344-20.277.6-4.173-1.193-10.733,5.964-16.7-.593-21.469-8.351-7.159-12.524-14.313-3.582-8.349-19.085-10.14-22.661,3.58-26.241-1.19-5.365,7.154-7.75-7.159,3.579-23.856,3.579-23.856,9.541-5.961,11.923-10.137,11.926-5.964,19.686-2.981,19.079,2.385,28.625,4.178,8.945,7.75,13.717,0,0-11.332,3.577-15.508,7.753-10.736,10.733-6.563,8.953,8.349,13.725,2.981,6.557-5.961,6.557-5.961l2.379,2.387s5.368-2.986,5.368,2.379,5.371,11.335,2.387,15.508-7.154,3.58-7.154,13.717,0,8.351,6.555,16.7,10.736,1.19,11.928,10.137,2.382,7.159,8.947,13.121,5.363,5.961,10.137,9.541,7.159,7.159,7.159,1.195.6-8.945,0-14.313,4.772-9.544,1.187-18.488-.594-8.349-7.75-14.909-11.931,1.195-14.31-8.349S1443.614,127.189,1447.2,126s8.94-8.349,10.132-3.577-8.942,22.065,8.354,3.577,9.541-10.733,9.541-10.733,8.945-1.192,10.733,0,6.566-5.368,4.769-4.769-19.077-9.544-19.077-9.544l-12.53-7.154s4.178-2.983,7.159-2.385,3.582-5.964,6.566-6.563,23.255,4.178,27.433,6.563,19.079,2.981,17.288,1.788-11.327-8.349-11.925-10.736-21.469-7.156-28.027-6.56-12.522,2.382-17.89.593-13.121-6.56-17.3-6.56S1385.774,59.8,1383.39,60.4s-5.967,11.926-7.755,10.137-4.769-1.791-13.123-4.176-19.678-4.176-34.59-5.365-25.041,1.192-29.216-3.58-13.118-2.981-23.258-3.58-22.065,0-27.433,0-17.887-.593-20.87-1.192-6.56-4.772-10.137-5.365-2.986-1.788-10.14-2.981-6.56-8.945-8.945-2.387-1.2,4.772-4.772,7.156-7.157,7.156-9.544,7.156-11.923.6-13.717-.6-4.772-2.385-10.736-2.385-5.964.593-13.716-.6-13.717-.6-20.873-4.173-7.156-5.964-13.121-5.368-5.959-1.192-14.313-1.192-18.483,4.772-23.854,5.368-17.291-.6-21.467-2.387-5.368-5.961-20.876-4.176-24.45,1.791-21.469-2.981,6.56-9.541,8.349-10.137,5.962-3.577,2.978-4.769-5.961-2.981-13.115-3.58-6.566,2.385-17.3,1.192,5.964-4.173-16.1-3.577-27.433,2.385-29.818,2.385-5.37-4.769-11.332,2.385-14.318,11.329-26.241,11.926-12.524-1.192-23.851,2.981-18.491-1.192-16.1,8.349S872.3,58.007,872.3,59.8s-5.368,13.717-11.925,6.56-18.491-35.186-13.123-16.1S864.546,75.9,853.219,78.88s-10.142-1.192-11.931-2.387,0-9.541-.6-14.313-1.788-7.753-4.173-10.137-1.791-5.964-6.56-7.156-.6-3.58-8.349-3.58-14.31-4.772-12.522,5.964,3.574,3.58,8.343,13.717,13.717,2.981,7.159,10.137-23.854,4.772-28.03,1.791-2.981,1.192-10.739-4.176-5.363-9.544-14.308-5.368S759.587,75.3,756.008,72.317s-11.926,4.173-14.909.6-14.912-3.58-17.294,0-9.544,2.981-19.681,7.753-7.159.593-19.681,10.733-19.683,18.486-23.854,11.926S633.75,85.438,642.7,83.647s13.12-5.365,17.892-1.192,12.527,2.983,13.714,0,6.563-5.964-.6-9.541-7.753-1.195-19.082-5.368,0-2.981-15.508-5.368S617.05,58.6,612.877,57.408s-10.137,0-16.1-.6-10.137-1.788-15.508-1.192-8.346-.6-15.505,4.772-12.527,7.753-17.3,11.926S531.179,84.842,527.6,87.825s-16.1,12.522-17.3,16.1,1.192,6.56-3.58,8.945-9.541,2.385-13.121,2.981,0-5.368-3.58.6-2.385,27.433.6,24.45,1.192-12.522,14.313-3.574,21.472,7.75,20.873,16.1,8.945,7.753,10.137,9.544,7.156-2.387,7.156-2.387,13.121-8.349,13.121-12.522,8.349-13.717,8.349-13.717S558.6,131.36,558.6,125.4s1.794-7.755,2.983-13.719-6.56,0,11.332-11.332S592,96.77,592,96.77s2.382,2.385-.6,5.961-8.349,13.123-9.541,14.313,5.368,10.736,8.346,10.736,8.948-2.387,12.527-1.791,9.541-1.786,11.329-.593,5.964,4.769,2.981,7.753-9.544,6.558-14.31,5.368-11.931-9.544-7.755,2.385-.6,14.909-4.176,14.313-11.329-6.558-10.137,2.387-7.75,14.906-9.541,14.906a46.145,46.145,0,0,1-5.365-.6s-5.371-.6-8.349-.6-8.948,2.981-10.736,5.368-4.176.6-7.156.6,0-3.58-5.964-4.772-9.541-2.385-13.118,0-8.945,3.577-11.332,1.788,1.195-5.967-3.58-3.577-8.349,8.945-10.137,9.544,5.368,0-1.788.593-10.137,2.39-13.717,3.58,1.192,8.349-5.368,10.733-1.786-2.981-8.349,2.385-7.755,10.14-10.137,10.736-1.788,1.788-7.156,2.385-4.769,1.192-7.755,1.788.6,1.791-5.962.6-11.332,1.195-10.14,3.58,23.258,8.945,6.56,8.349-11.329,2.385-7.752,4.769,5.365,4.769,7.156,5.368,4.769,7.755,4.769,7.755,4.772-.6,1.791,3.577,1.192,5.368-1.791,10.736-2.981,1.788-5.365,2.981-5.964,5.368-12.527,1.788-11.327-5.368-19.082-5.961-2.387-1.788-7.753,2.382-6.56,8.947-5.961,14.313,1.192,12.524-.6,16.1-1.788,7.156-.6,12.524a13.063,13.063,0,0,0,4.774,7.755s8.349,1.19,10.137,1.788,5.368-1.192,10.137,1.786,9.544,4.178,12.524.6,14.909-7.753,18.491-11.329,5.961-4.769,4.173-8.349,3.58-12.524,6.56-14.313,9.541-3.58,9.541-3.58l7.156-10.733s5.964-6.563,8.945-5.964,19.678,6.563,18.488-1.19,1.192-10.14,2.981-7.159,6.56,1.788,6.56,1.788a3.762,3.762,0,0,1,4.173.6c1.788,1.786,4.173,9.544,7.753,11.329s6.56,3.579,8.948,4.769,4.772,0,9.544,4.176,9.541,6.563,10.134,8.349,4.774,5.964,4.774,5.964,4.173,1.192,2.981,3.579-7.154,9.544-10.137,10.733-10.733-1.195-7.753,1.192,7.156,5.368,8.945,3.577,13.118-13.717,13.118-13.717-.6.6,0-2.983,0-7.75,2.983-5.961,4.772,4.176,5.964,1.791,2.385-1.192-.6-2.981-10.137-11.928-13.717-12.524-12.527-6.563-12.527-6.563-1.786-1.788-5.961-6.558-5.365-3.58-6.563-7.755-4.772-9.541,1.791-8.349,10.733,5.365,16.7,8.945,4.774,4.769,10.14,8.349,5.967,7.159,10.137,6.563A7.8,7.8,0,0,1,574.1,272.7c0,5.368,1.19,11.329,2.382,12.524s4.769,3.579,5.964,5.964,3.58,8.349,5.365,10.733a73.818,73.818,0,0,1,5.368,7.159c1.788,2.981,2.384-.6,4.173.6s4.176.594,4.176-1.791a62.449,62.449,0,0,1,.593-6.56s8.354-2.385,5.969-3.579-9.546-8.349-8.948-10.733,0-7.154,2.978-6.558,5.967,5.961,12.527,1.19,14.313-7.156,11.925,0,.6,8.346,0,16.1,2.39,5.368,6.566,9.544,7.154,4.774,10.134,5.964,7.753.6,12.527,1.195,7.752-1.791,11.928-.6,13.714-.6,15.505.6,8.948-2.385,9.541,1.788,2.983-.6,1.195,8.945a112.617,112.617,0,0,1-4.175,16.1c-6.56,12.524-8.945,15.508-11.928,16.1s-4.769,2.385-10.134,1.788-11.928,0-19.681-1.788-22.068,1.788-28.029-1.791-14.313-.6-17.9-4.769-9.538-3.58-11.926-5.964-3.577-8.942-3.577.6-5.368,10.137-6.56,14.909,1.786,2.385-4.774,1.788-8.349,2.981-17.89-4.173-14.313-7.156-19.082-10.14-9.544,5.365-14.313-4.173-11.332-1.791-11.928-9.544,0-7.154.6-11.926,7.156-8.945,4.176-10.733-.6-4.772-4.772-2.981-10.137,2.385-14.909,4.173,10.733,0-12.524,1.791-29.821,4.173-29.821,4.173-1.788-1.192-4.772,1.192-7.156,5.964-11.329,4.176-6.56-1.195-10.137-.6-5.961-2.981-10.137,0-8.945,4.173-10.736,2.978-4.777-5.977-4.777-5.977Z" transform="translate(515.724 27.686)" fill="#cbcbcb"/>
    <path id="Path_374" data-name="Path 374" d="M527.056,279.479c-1.788,6.563-8.349,16.1-8.349,16.1l-11.931,5.964s-4.168,3.58-6.558,4.176-8.349,3.58-8.349,3.58-5.365-1.195-3.58,4.17,2.387,11.931,1.788,13.717-.593,5.371-.593,10.142-1.788,10.731-4.772,11.923-5.964,2.387-5.368,6.563.6,16.7.6,16.7l7.755,11.928s2.385-1.788,7.156-1.788,9.541-4.17,9.541-4.17,5.371,1.187,4.769-5.368,2.39-14.313,1.788-16.1,5.371-9.544,5.371-11.329,5.964-10.135,5.964-13.121,4.173-7.752,4.769-11.327,1.192-11.928,2.385-14.313a15.888,15.888,0,0,0,1.791-7.156v-7.156l-4.178-13.128Z" transform="translate(790.573 461.011)" fill="#cbcbcb"/>
    <path id="Path_375" data-name="Path 375" d="M680.594,365.59c-1.788,2.382-2.981,28.03-4.173,31.01s-3.579,18.488-2.382,22.063,2.978,16.7,1.788,20.876.6,17.294-2.39,16.7-4.168.6-4.168,2.385,4.168,5.365,4.168,5.365a77.426,77.426,0,0,0,10.143-.6c2.981-.6,8.945-3.58,13.717-3.58s7.755-3.58,11.925-3.58,13.123-2.978,15.508-1.788,5.961-7.156,10.137-5.365,13.123-4.176,17.3-4.176,5.964-6.563,10.736-5.365,13.717-2.385,17.892-.6,10.733-5.961,13.714,0,11.931,8.351,11.931,11.332-.6,9.544-.6,9.544l7.159-.6s11.327-7.156,13.121-7.156,5.964-5.961,5.964-2.978-3.582,9.544-4.772,12.522,1.19,6.563,1.19,6.563,5.969,2.981,3.582,8.346.594,4.178,0,8.349,0,2.385,2.379,4.769,6.568,6.568,10.142,5.967,4.769-4.173,7.753-2.385,8.942.6,10.731,2.983-11.327,8.346,11.335-1.788,25.041-12.527,28.024-16.107,6.568-7.154,8.947-9.541.6-1.788,7.753-7.156,7.156-2.981,13.722-13.12,11.327-13.714,12.524-15.505,3.577-2.385,4.173-9.546,5.365-13.714,5.365-16.1,1.788-5.959,1.192-10.137,2.387-10.134-1.192-16.1,1.788-8.346-3.579-10.739-8.945-1.19-10.137-5.365-5.967-3.58-7.755-14.909-8.945-12.527-8.945-12.527-7.156-2.981-5.368-4.17,2.387-9.546,1.794-11.931-.6-7.752-2.385-11.327-2.983-8.349-4.772-12.527-4.769-5.368-5.964-10.137-2.983-6.563-3.577-7.753-1.8-7.154-2.983-.6-3.582,19.082-3.582,19.082-4.772,10.142-6.56,13.123-3.577,10.733-6.558,10.135-4.777,2.986-7.156,2.385-5.964.6-7.753-1.19-6.56-6.56-8.948-7.159-4.173-5.363-5.964-5.363-4.772-4.178-4.173-6.563,1.19-7.75,1.788-10.137,4.176-7.755,4.176-7.755,0-3.577-2.983-3.577a82.671,82.671,0,0,1-10.14-.6c-6.56-.6-8.343-1.192-10.736-1.192s2.39-1.192-4.173.6-9.541,6.563-13.717,10.739-.594,2.978-4.168,4.173-2.983-2.983-5.371,3.58,1.195,8.346-.6,9.541-14.308-4.173-14.308-4.173,2.981-.6.593-3.58-4.769-7.154-8.343-5.365-6.568,2.983-8.948,5.964-2.387,5.365-4.175,7.75-6.558,2.385-7.156,4.772-.6,8.349-2.382,8.945-2.385-2.379-4.173-2.978-1.195-5.368-2.385-2.385-2.385,2.382-4.173,7.154-2.387,8.948-4.176,9.544,0,1.192-5.371,4.176-6.558,2.981-14.308,6.56-5.961,3.58-11.329,4.173-6.563,2.387-10.14,2.983-5.961,1.19-9.544,4.769a18.453,18.453,0,0,1-8.942,5.368,12.846,12.846,0,0,0-4.782,2.986Z" transform="translate(1103.987 455.411)" fill="#cbcbcb"/>
    <path id="Path_376" data-name="Path 376" d="M719.67,220.958c-2.382,3.582-10.135,14.313-13.115,14.912s-5.967,3.58-8.351,2.981-7.753,0-9.541,7.753-4.772,11.928-6.566,11.329,2.981,11.329-7.154,6.563-6.557,4.176-7.753,6.563,1.788,8.945,2.385,11.329a37.361,37.361,0,0,0,4.772,10.135c2.387,3.574,4.173,7.753,8.349,6.566s17.291,0,17.291,0,4.777,1.788,7.755,1.788,3.58-1.192,5.365-1.192,5.365-5.967,4.772-6.56-2.382-2.387,1.192-5.967,7.753-4.769,8.351-8.945-1.192-4.173.6-6.563,5.961-1.783,4.772-4.173,1.19-1.788-1.195-6.563-5.368-6.56-2.983-12.524,4.777-7.156,4.178-10.733,2.981-4.772-1.195-8.947-5.961-5.365-8.945-6.563l-2.981-1.187Z" transform="translate(1100.095 364.478)" fill="#cbcbcb"/>
    <path id="Path_377" data-name="Path 377" d="M735.015,244.829c2.39-.6,10.736-6.56,11.335,4.176s1.187,7.75,4.772,13.714,5.956,7.758,10.132,4.774,8.945-2.986,10.137-8.349,1.2-5.368,4.772-5.368,4.772-.6,6.568,1.794,2.973-.005,10.731,4.17,14.31,2.978,19.087,7.156,7.156,3.582,13.714,5.964,3.577-1.192,9.541,5.368,3.585,8.346,6.56,11.329,5.37-2.387,4.176,4.769-9.541,0,2.983,10.135,14.313,11.933,18.483,14.912,7.159,6.563,3.585,6.563-14.912,0-16.1-1.791-6.56-2.983-10.143-7.156-11.327-7.156-13.113-10.733-4.178-4.772-7.159-4.772-5.961,3.577-10.14,7.753-2.379-2.382-7.753-.6-11.327-.6-14.313-2.983-2.382-5.961-7.151-4.173-7.753.6-5.964-2.981.593-8.351.593-8.351,1.794-5.964-2.379-7.154-4.176-5.365-8.351-6.563a102.643,102.643,0,0,1-10.733-4.173,9.427,9.427,0,0,1-2.387-.6,64.833,64.833,0,0,0-6.56-1.788c-4.772-1.19-8.351-.005-10.733-2.983s-1.195-7.156-1.195-7.156,9.541,1.192,0-5.964l-9.541-7.154a1.311,1.311,0,0,0,.593-1.791c-.6-1.2,5.954,0,5.954,0Z" transform="translate(1201.636 400.246)" fill="#cbcbcb"/>
    <path id="Path_378" data-name="Path 378" d="M630.763,224.78a9.783,9.783,0,0,0,7.753,2.387c4.772-.6,8.343,9.541,11.332,13.118s4.772,5.368,11.33,9.544,5.961-3.58,14.909,8.945,4.769,4.772,8.945,12.522,6.56,11.931,8.945,13.725,4.176,6.555,4.774,8.346,4.766,7.154,4.766,8.945,1.2,6.56-2.382,10.733-6.563,4.772-6.563,4.772-7.156-3.58-9.541-7.156-5.365-6.56-9.544-13.714-8.945-14.912-11.33-18.488-5.964-7.162-7.752-10.736-6.56-14.313-8.945-15.508-2.983-4.769-7.159-8.945-3.577-7.753-5.365-10.137-5.961-7.758-5.961-7.758l1.788-.594Z" transform="translate(1037.519 370.783)" fill="#cbcbcb"/>
    <path id="Path_379" data-name="Path 379" d="M291.746,726.021c-4.176-2.385-13.121-6.56-16.1-8.945s-11.926-15.51-11.926-15.51l-6.563-12.524s-7.75-9.541-5.961-13.118,5.368-5.964,5.368-7.753,3.577-6.563.594-8.349-2.981-2.385-4.772-7.752-1.788-10.142-4.173-11.332-4.176-8.945-6.56-9.541-4.772-4.772-4.772-4.772l-3.58-48.306s-1.195-22.063-2.385-26.837,1.788-14.906-1.195-23.854.6-19.678-1.192-23.258,1.192-13.714-.6-23.255,7.156-21.469,0-25.046-1.788-8.948-7.753-8.948-10.137-2.983-15.505-7.154-15.508-11.931-18.488-14.914-12.524-10.733-15.505-13.118-5.964-12.524-8.349-15.508-3.577-11.923-7.156-17.291-8.349-14.31-9.544-16.1-14.313-17.294-14.313-17.294L132.511,336s8.945-5.368,7.753-7.156.6-3.582-3.58-7.156a8.846,8.846,0,0,1,0-13.12c3.58-2.986,8.945-12.527,8.945-12.527l8.945-14.906s7.159-7.758,7.159-13.123,10.137-8.942,4.173-13.714-2.981-8.947-4.772-12.527-.6-5.961,4.772-9.541,14.909-16.7,14.909-16.7,7.156-1.791,8.945-1.791,4.772-19.087,10.14-6.563,7.156,5.964,5.368,14.909,2.385,7.159,4.769,4.774-1.195,1.788,3.577-8.95,2.983-14.31,5.964-11.327,4.173,3.58,9.541,5.368,7.156,1.19,8.942,4.769,1.195-1.192,11.332.6,24.45-3.58,22.661,2.382-5.368-.6,2.981,5.964,9.544,7.753,14.313,8.947,8.945.6,16.1,7.753,8.945,7.753,10.733,11.327,4.769,1.195,7.753,4.772,7.156,3.582,11.329,3.582,0-3.582,6.56,1.192,11.332,5.363,14.313,14.906,8.945,8.948,4.173,18.491S346,310.353,350.176,309.757s11.928-4.178,14.313-3.58,3.577-1.788,7.156,0,4.176-2.385,3.58,1.788-.6,0-.6,4.176-1.192-4.176,5.964-2.385,2.981-3.582,11.329,4.173,8.351,5.371,11.33,9.544,5.964-2.382,7.755-.6,7.156.593,12.524,1.788,1.788-3.577,10.14,1.788,16.7,3.577,18.486,8.349,6.563,2.981,8.945,5.964,3.577-1.195,5.964,2.983,9.544,2.978,8.349,7.151,1.786,1.791.594,7.752-5.368,15.51-8.942,17.892-3.577,5.368-5.964,8.349-1.788-2.981-4.772,5.368-2.385,9.544-4.769,17.294-.6,0-2.385,7.753-.6,12.524-2.385,21.472-1.192,8.945-2.385,15.505,2.981-2.978-2.387,10.733-5.961,13.118-7.75,19.085.6,1.192-5.964,4.772-2.981,2.385-10.736,4.772-17.294,4.774-20.274,5.368-14.909,4.173-11.329,11.327,3.579,8.351,0,17.3-8.945,11.928-8.945,16.1-2.387,8.346-2.981,11.329,5.365-2.983-1.788,5.964-7.753,6.56-10.14,11.928,0,1.19-2.385,5.365-8.349,5.961-8.349,5.961.594,2.983-1.791,1.791-1.788.6-10.736-1.791-10.137-8.343-11.329-4.173.6,6.563,5.964,10.736,14.313,5.365,11.926,9.544a42.748,42.748,0,0,1-4.173,6.56c-1.791,2.387,2.385.6-1.791,2.387s-6.56,9.544-8.349,9.544-2.983,2.981-5.368,1.788-8.346-5.368-9.541-2.983-3.58-2.983-2.983,5.365,1.791,13.12-1.192,14.912-10.14,0-10.14,0l-1.192-2.983-4.173,1.192s-1.788,7.156,1.192,8.349,2.385,2.382,5.365,5.961,1.195,10.14,1.195,10.14,0,1.791-2.981,4.772a18.156,18.156,0,0,0-4.772,7.156c-.6,1.788-4.176,9.544,1.192,8.945s9.544-3.58,9.544,5.964,2.385,7.159-.6,13.717-5.368,7.156-5.964,13.118.6,6.56,1.791,10.14,4.176,1.788,1.192,3.58-11.92,0-11.92,0Z" transform="translate(216.616 334.721)" fill="#cbcbcb"/>
    <path id="Path_380" data-name="Path 380" d="M354.5,528.161l-4.173-5.961s-1.788-3.582-4.772-4.176-9.544-8.349-9.544-8.349a8.888,8.888,0,0,1-2.981-6.558c0-4.173-2.387-10.733-.6-17.89s2.387-16.1,1.791-18.488,2.981-2.981-1.192-5.368-12.524-2.981-17.892-2.981a42.587,42.587,0,0,0-13.121,2.385c-1.192.6,6.56-17.89,7.753-20.87s6.56-16.1,6.56-17.89,1.788-2.387-1.788-4.769-9.541-3.579-13.121-1.791-2.981-2.385-5.961,4.769-5.964,14.912-9.544,16.1-10.733,4.772-10.733,4.772-8.945-.6-11.928-1.192-15.505-7.156-17.89-11.329-3.577-13.123-3.577-17.293,6.558-16.7,5.961-19.681,6.563-14.909,5.964-16.7,1.192-7.753,2.981-10.137,10.736-5.368,13.121-7.753a27.37,27.37,0,0,1,10.733-6.56c4.173-1.195,7.755-2.385,10.736-2.385s10.733-6.56,11.926,0,6.563,4.173,9.544,4.769,3.58,3.58,8.349-4.173,9.541-10.14,9.541-8.351,7.753-.593,8.945,1.195,3.579-1.195,7.753,2.385,10.137,4.176,9.541,5.961,2.385,1.788,2.385,3.579,2.387-4.176,2.387,6.558,2.981,17.3,2.981,17.3,4.173,8.947,5.961,7.156,5.365-6.558,5.365-6.558,5.964-3.579,1.791-16.1-1.192-16.1-2.385-20.277-1.195-6.563,5.961-11.928,24.45-17.294,28.626-19.678,13.714-8.945,13.714-8.945a8.618,8.618,0,0,0,4.176-6.56c.6-4.772,11.926-13.121,12.524-15.505s8.351-8.346,8.351-8.346,8.346-4.774,7.75-7.753,10.736-8.346,12.524-8.346,11.332,2.978,11.332-2.39,0-6.56,5.964-11.329S500,228.8,502.986,228.8s13.12-5.363,17.294-6.558,17.3-7.159,5.368,0-4.176,2.981-6.56,8.945-4.176,13.717,7.156,4.769,10.733-10.736,14.909-11.329,1.192,1.788,10.137-1.195,9.544-4.173,9.544-4.173,4.176-3.58,1.788-5.365,2.387-4.176-6.56-.6-8.349,4.176-14.313,2.385-14.909-1.195-8.349-7.159,14.909-7.753,9.541-10.137-19.082.6-20.87,1.192-5.964-.6-9.544,0-2.385-4.767,0-5.961a103.153,103.153,0,0,1,19.681-7.159c9.541-2.385,32.8-2.981,38.167-2.981s12.522,1.195,16.7-1.788,12.524-7.75,13.717-10.14,5.964-5.961,5.964-5.961,5.365-5.368,2.385-7.753-5.964-7.753-8.349-6.56-.594,8.351-5.365.6-4.176-8.945-6.56-10.733-4.772-.6-2.981-8.945,1.192-11.928,1.192-11.928,1.788-7.154,0-7.75-2.981-2.385-5.961-.6-19.681,10.14-23.258,11.928-8.351-7.156-6.563-11.329.6-1.791-1.788-7.753S537.578,97.6,534,97.6s-11.926-5.368-14.313-1.788-14.906,14.906-17.3,16.1-5.961-10.137-7.75,8.349,6.56,23.856-2.981,25.049-17.892,6.558-17.892,6.558-7.75.6-7.75,5.368-2.981,16.1-6.563,17.294-12.524-.593-15.505-4.173.6-16.7.6-16.7l5.368-5.368s-38.167-5.961-37.573-8.349-11.329-6.558-12.522-10.137-1.791-11.332-.6-14.313S416.516,98.2,424.864,95.216,447.526,85.675,451.7,84.48s11.329-.6,13.717-3.577,2.981-8.349,2.981-8.349-1.192-8.351,1.192-7.159,6.56,2.983,7.156,4.772.6,5.964,4.772,1.19,9.544-6.56,14.313-8.942,11.926-1.788,16.1-4.173,11.329-4.772,11.926-10.736-1.789-4.173-4.772-4.772,1.192.6-8.945,5.368-7.156,1.192-14.313,4.769-7.755,4.176-8.349,1.195,1.192-7.753,1.192-7.753.6-.6-3.577-1.788-4.176.6-4.772-4.769,2.981-13.121-2.981-10.736-11.329-1.788-15.505,10.137S443.353,63.61,439.773,60.627s-4.173-3.58-7.156-3.58-7.156-3.577-12.524-4.173-21.472-.6-25.642,0-8.945-2.385-12.527,1.195-8.942,8.349-8.942,10.14-5.368-6.563-7.156-5.964S359.262,55.86,353.9,55.86s-8.948-2.983-10.733-2.983,1.786-4.772,0-5.368-40.556-1.788-40.556-1.788-12.522-4.769-17.291-4.173-17.89,1.19-28.032,2.981-25.049,7.753-29.818,8.349-15.505.6-17.294-2.385.6-2.385-1.791-2.981-.593-1.788-5.961-5.961,2.387-7.753-8.349-7.753-17.294-.6-26.835,0-29.222,5.365-31.606,4.769-21.469,2.983-24.453,1.195-17.892,6.558-20.87,5.961S76,46.322,73.016,48.11s-17.3,5.365-12.524,8.349,4.173,5.961,4.769,7.753-4.769,5.961-4.769,5.961-1.195,0-7.753-2.385S39.023,64.211,36.039,66s-8.349,5.371-7.156,7.755,9.541,7.753,10.736,5.961,4.176-5.365,7.753-4.769,8.947-2.385,4.176,3.58S42.6,87.472,39.619,88.071s-10.137,1.19-16.7,1.788-5.967-2.385-11.928,3.58-8.349,2.385-9.541,8.945-2.385,6.558,0,8.349-4.772,2.385.6,4.173,11.926,3.58,11.329,5.365,5.964-2.382,2.385,2.385S9.8,131.6,16.955,126.831s11.329-1.195,17.294-4.176,11.928-3.577,15.505-5.961,5.368-5.961,10.736-7.755,1.788.6,2.385,3.58,0,3.577,3.58,1.19,3.577-.593,8.349-3.577,10.137-5.964,13.717-4.176,4.769,1.791,7.156,1.791-2.981-.6,2.385,0-2.385-1.791,15.505,2.385,22.664,1.192,23.854,7.753,3.58-.6,6.56,3.577,4.772.6,6.56,7.753,0,26.837-1.192,29.222-1.788,2.385-1.192,7.753,7.753,31.013,5.368,32.8-7.753,2.385-7.753,2.385L142.789,212.1s-4.769,8.945-8.945,13.717-9.541,10.736-12.524,14.906-5.368,11.335-9.541,15.508-7.753,2.385-6.56,11.329,0,18.486,1.192,25.049,4.176,15.505,6.56,19.085,4.176,3.577,8.349,6.558,9.544,6.563,8.945,9.544.6,21.472.6,21.472a33.7,33.7,0,0,1,4.173,12.522c.6,6.563,4.772,13.12,4.772,13.12l3.58,7.755s1.788.6,4.176,5.365,2.385,4.772,2.981,7.154.6,1.791.6,2.39-.6-10.14-1.791-13.123-1.192-6.558-2.385-10.137.6-7.755-2.981-13.12-3.577-5.964-5.365-11.332-4.176-11.329-1.788-12.524,4.173-8.942,8.945,0,5.368,6.563,5.964,13.719,2.385,9.544,4.173,12.522,5.961,13.123,8.349,17.294,0-2.385,5.365,5.964a94.129,94.129,0,0,1,8.947,16.7c2.981,6.56,4.772,6.56,6.56,11.329s.6,3.579-.6,8.945,1.192,11.332,1.192,11.332,8.349,2.981,8.945,4.769,8.945,4.769,10.14,7.156,8.945,5.365,8.945,5.365,6.56,4.176,8.942,5.368,9.546,2.387,9.546,2.387,4.769,1.195,6.558,1.788,7.156.6,7.156.6,4.772-3.577,6.56-2.385,5.964-2.387,7.753.593,5.368,2.983,7.156,5.371,3.577,2.385,6.56,5.365,5.964,2.385,8.945,4.769,5.365,2.385,8.945,2.385,3.577,0,5.964.6,3.577-1.791,5.961,1.195,4.173,4.769,5.961,7.75,5.964,2.981,6.56,7.753,1.788,4.178,1.788,8.349,2.385,5.964,4.176,7.159,8.346,7.151,8.346,7.151l8.945,1.791,7.156,5.368,7.76,2.377Z" transform="translate(0 47.138)" fill="#cbcbcb"/>
    <path id="Path_381" data-name="Path 381" d="M210.766,21.275,246.548,16.8s12.522,0,18.785-4.472,0-4.472,18.785-8.049,13.42-5.368,23.26-3.58,12.522,1.791,23.258,3.58,13.417-.893,23.255,1.788S368.2,7.858,376.256,7.858H401.3c12.524,0,24.153-7.156,28.626-2.684s7.156,2.684,22.365,4.472,21.469-1.791,27.73,0,17-.893,29.521,0,18.785-.893,23.258-.893,8.942-6.264,15.206-.9,14.313-1.788,15.206,5.368,12.524,1.788.9,7.156-9.84,4.472-17.892,11.629,5.368,13.417-11.629,19.681-19.681-3.58-24.153,7.156,0,13.417-.893,18.785-2.684,6.261-8.052,10.733-5.365,0-17.89,2.684-21.469,5.368-26.834,5.368-17,4.472-20.576,6.261,6.264,4.472-12.524,9.84S400.4,117,395.039,124.149s-3.58,8.055-7.156,12.527S373.57,159.041,368.2,154.568s-8.052-3.58-12.524-8.052-7.156-10.733-9.84-14.313-3.579-12.524-4.472-17.892-8.947-17.89,0-16.1,14.313.9,17-.893,5.368-8.052,5.368-8.052-.893-9.84-3.58-15.208-.893-9.84-5.365-15.206-4.472-4.472-10.736-9.84-4.472-8.052-14.313-8.945-12.524-3.58-16.1-2.684-15.206-6.264-2.684-7.156a122.511,122.511,0,0,1,24.153.893s16.1-7.156,10.736-8.049,8.049-8.947-4.472-6.264-26.834,6.264-30.414,7.156-12.524,1.788-21.469,4.472-19.681,1.791-25.046,8.052,0,7.156-5.368,6.261,4.472-6.261-8.049,0-8.945,5.368-15.206,3.58a49.348,49.348,0,0,1-10.736-4.472s8.055-.9-3.577-1.788-11.629-.893-16.1-6.264-1.788-5.368.893-7.156a16.058,16.058,0,0,0,4.475-5.371Z" transform="translate(334.867 0)" fill="#cbcbcb"/>
    <path id="Path_382" data-name="Path 382" d="M206.568,23.223c-4.472,4.472-15.208,10.736-12.522,13.42s4.472,12.524,9.84,9.84-.9-11.629,19.678-4.472,18.785-.893,23.258,9.84,8.049,18.783,5.365,21.469-3.577,5.368-12.524,8.052-12.524,6.263-6.261,10.733,17.892,8.945,23.258,11.631,21.469,3.58,13.417-5.365,1.788-11.631,1.788-11.631,15.208,11.631,9.843-1.788-8.948-13.417-5.368-13.417,10.733,4.472,10.733,4.472l3.58-7.156-3.58-11.629L275.445,45.593s9.838-8.945-3.579-10.733-12.524-1.788-19.681-6.264-8.049-6.261-21.469-3.577-17.89,4.472-17.89,4.472Z" transform="translate(319.385 38.307)" fill="#cbcbcb"/>
    <path id="Path_383" data-name="Path 383" d="M123.218,36.58c5.368-5.368,19.681-17.89,25.049-14.313s13.415-2.684,19.678,2.684S181.362,36.58,186.73,38.368s11.629-4.472,17-1.788,24.151-13.417,20.574-.893,4.472,16.1-5.368,17-20.574,8.052-25.049,5.368-8.052-5.368-15.208-1.788-3.577,3.577-11.629,1.788-9.838,1.788-11.626-.9-7.156-1.788-6.263-9.84,3.577-7.156-1.791-7.156-9.838.9-13.417-1.788-10.731-1.791-10.731-1.791Z" transform="translate(203.253 35.686)" fill="#cbcbcb"/>
  </g>
</svg>
